<?xml version="1.0" encoding="iso-8859-1"?>
<!-- Uploaded to: SVG Repo, www.svgrepo.com, Generator: SVG Repo Mixer Tools -->
<svg height="800px" width="800px" version="1.1" id="Layer_1" xmlns="http://www.w3.org/2000/svg" xmlns:xlink="http://www.w3.org/1999/xlink" 
	 viewBox="0 0 512 512" xml:space="preserve">
<path style="fill:#FBB03B;" d="M304.666,143.723L9.813,144.64v309.875c0,26.407,21.407,47.814,47.814,47.814h199.225
	c26.407,0,47.814-21.407,47.814-47.814V143.723z"/>
<path style="fill:#A65A53;" d="M384.357,40.126h-39.845c-8.802,0-15.938-7.136-15.938-15.938l0,0
	c0-8.802,7.136-15.938,15.938-15.938h39.845V40.126z"/>
<path style="fill:#BF9484;" d="M256.852,184.358c26.407,0,47.814-22.57,47.814-48.977s-21.407-48.977-47.814-48.977H57.627
	c-26.407,0-47.814,22.57-47.814,48.977s21.407,48.977,47.814,48.977H256.852z"/>
<path style="fill:#514A51;" d="M232.945,152.054c8.802,0,15.938-7.35,15.938-16.152s-7.136-16.152-15.938-16.152H81.534
	c-8.802,0-15.938,7.35-15.938,16.152s7.136,16.152,15.938,16.152H232.945z"/>
<path style="fill:#A65A53;" d="M304.666,470.453h175.318c13.204,0,23.907-10.703,23.907-23.907l0,0V64.034l0,0
	c0,13.204-10.704,23.907-23.907,23.907H264.821l0,0c22.006,0,39.845,17.839,39.845,39.845L304.666,470.453"/>
<g>
	<path style="fill:#FFFFFF;" d="M256.852,230.209h-10.926v-15.631h10.926c1.369,0,2.75-0.069,4.103-0.204l1.558,15.554
		C260.644,230.114,258.74,230.209,256.852,230.209z M237.59,230.209h-15.631v-15.631h15.631V230.209z M213.622,230.209h-15.631
		v-15.631h15.631V230.209z M189.655,230.209h-15.631v-15.631h15.631V230.209z M165.688,230.209h-15.631v-15.631h15.631V230.209z
		 M141.72,230.209h-15.631v-15.631h15.631V230.209z M118.795,230.209h-16.673v-15.631h16.673V230.209z M94.828,230.209H78.155
		v-15.631h16.673V230.209z M70.86,230.209H57.627c-1.189,0-2.386-0.036-3.559-0.11l0.968-15.601
		c0.851,0.053,1.723,0.079,2.591,0.079H70.86V230.209z M44.928,228.78c-6.061-1.39-11.798-3.759-17.052-7.04l8.278-13.258
		c3.777,2.358,7.906,4.062,12.269,5.063L44.928,228.78z M271.61,228.247l-4.104-15.084c4.305-1.171,8.356-3.042,12.042-5.561
		l8.821,12.904C283.242,224.012,277.603,226.617,271.61,228.247z M20.457,216.198c-4.666-4.138-8.563-8.987-11.579-14.413
		l13.66-7.596c2.157,3.88,4.946,7.349,8.289,10.312L20.457,216.198z M295.553,214.662l-10.84-11.262
		c3.221-3.101,5.873-6.683,7.883-10.649l13.942,7.068C303.736,205.352,300.04,210.345,295.553,214.662z M5.07,193.251
		c-2.038-5.83-3.073-12.019-3.073-18.271h15.631c0,4.168,0.739,8.917,2.197,13.083L5.07,193.251z M310.019,191.294l-14.934-4.582
		c1.171-3.786,1.764-7.564,1.764-11.733h15.631C312.482,180.19,311.653,186.01,310.019,191.294z"/>
	<path style="fill:#FFFFFF;" d="M256.852,311.49h-11.968v-15.631h11.968c1.215,0,2.446-0.056,3.657-0.166l1.411,15.567
		C260.242,311.413,258.537,311.49,256.852,311.49z M237.59,311.49h-16.673v-15.631h16.673V311.49z M213.622,311.49H196.95v-15.631
		h16.673V311.49z M189.655,311.49h-15.631v-15.631h15.631V311.49z M165.688,311.49h-15.631v-15.631h15.631V311.49z M141.72,311.49
		h-15.631v-15.631h15.631V311.49z M117.753,311.49h-15.631v-15.631h15.631V311.49z M93.785,311.49H78.155v-15.631h15.631V311.49z
		 M69.818,311.49H57.627c-1.39,0-2.798-0.053-4.183-0.157l1.176-15.586c0.995,0.075,2.006,0.113,3.006,0.113h12.191V311.49z
		 M44.29,309.861c-6.015-1.496-11.71-3.987-16.925-7.402l8.563-13.077c3.745,2.451,7.828,4.238,12.136,5.31L44.29,309.861z
		 M271.049,309.649l-3.999-15.11c4.298-1.138,8.357-2.983,12.065-5.489l8.748,12.955
		C282.701,305.492,277.043,308.064,271.049,309.649z M20.074,296.773c-4.557-4.203-8.365-9.093-11.318-14.535l13.74-7.455
		c2.132,3.93,4.883,7.463,8.176,10.499L20.074,296.773z M295.075,296.212l-10.762-11.337c3.247-3.082,5.94-6.651,8.004-10.608
		l13.858,7.231C303.31,286.988,299.575,291.939,295.075,296.212z M5.031,273.589c-2.013-5.851-3.034-12.118-3.034-18.37h15.631
		c0,5.21,0.735,8.985,2.183,13.196L5.031,273.589z M309.758,272.967l-14.866-4.832c1.299-3.997,1.958-8.176,1.958-12.419
		l15.631,0.002C312.482,261.604,311.565,267.407,309.758,272.967z"/>
	<path style="fill:#FFFFFF;" d="M57.574,389.644c-1.164,0-2.353-0.038-3.528-0.11l0.977-15.601c0.865,0.054,1.742,0.089,2.596,0.08
		H70.86v15.631H57.627C57.609,389.644,57.592,389.644,57.574,389.644z M256.852,389.644h-10.926v-15.631h10.926
		c1.367,0,2.742-0.068,4.087-0.202l1.554,15.554C260.634,389.549,258.736,389.644,256.852,389.644z M237.59,389.644h-15.631v-15.631
		h15.631V389.644z M213.622,389.644h-15.631v-15.631h15.631V389.644z M189.655,389.644h-15.631v-15.631h15.631V389.644z
		 M165.688,389.644h-15.631v-15.631h15.631V389.644z M141.72,389.644h-15.631v-15.631h15.631V389.644z M118.795,389.644h-16.673
		v-15.631h16.673V389.644z M94.828,389.644H78.155v-15.631h16.673V389.644z M44.909,388.209c-6.057-1.393-11.794-3.765-17.049-7.052
		l8.286-13.254c3.779,2.363,7.905,4.068,12.265,5.071L44.909,388.209z M271.591,387.686l-4.102-15.084
		c4.305-1.17,8.358-3.041,12.044-5.559l8.818,12.906C283.222,383.454,277.583,386.058,271.591,387.686z M20.443,375.609
		c-4.664-4.141-8.556-8.991-11.571-14.417l13.665-7.589c2.155,3.88,4.941,7.351,8.283,10.315L20.443,375.609z M295.537,374.109
		L284.7,362.845c3.222-3.099,5.875-6.681,7.887-10.646l13.939,7.072C303.72,364.801,300.023,369.793,295.537,374.109z
		 M5.069,352.671c-2.038-5.829-3.072-12.004-3.072-18.256h15.631c0,4.168,0.739,8.91,2.196,13.078L5.069,352.671z M310.012,350.671
		l-14.932-4.625c1.175-3.795,1.772-7.761,1.77-11.79l15.631-0.002C312.483,339.854,311.651,345.377,310.012,350.671z"/>
	<path style="fill:#FFFFFF;" d="M256.852,469.883h-10.926v-15.631h10.926c1.312,0,2.633-0.064,3.928-0.19l1.51,15.558
		C260.496,469.794,258.667,469.883,256.852,469.883z M237.59,469.883h-15.631v-15.631h15.631V469.883z M213.622,469.883h-15.631
		v-15.631h15.631V469.883z M189.655,469.883h-15.631v-15.631h15.631V469.883z M165.688,469.883h-15.631v-15.631h15.631V469.883z
		 M141.72,469.883h-15.631v-15.631h15.631V469.883z M117.753,469.883h-15.631v-15.631h15.631V469.883z M93.785,469.883H78.155
		v-15.631h15.631V469.883z M69.818,469.883H57.627c-1.273-0.001-2.547-0.044-3.794-0.127l1.042-15.597
		c0.907,0.061,1.835,0.092,2.759,0.093h12.184V469.883z M44.686,468.381c-6.044-1.43-11.766-3.844-17.006-7.178l8.388-13.19
		c3.765,2.395,7.876,4.13,12.218,5.156L44.686,468.381z M271.396,467.968l-4.064-15.093c4.303-1.158,8.358-3.02,12.052-5.533
		l8.792,12.924C283.034,463.763,277.388,466.354,271.396,467.968z M20.307,455.603c-4.625-4.163-8.487-9.028-11.478-14.461
		l13.693-7.54c2.147,3.898,4.921,7.392,8.244,10.384L20.307,455.603z M295.371,454.441l-10.809-11.29
		c3.23-3.094,5.899-6.671,7.93-10.633l13.909,7.132C303.573,445.163,299.862,450.141,295.371,454.441z M5.055,432.763
		c-2.029-5.837-3.057-11.857-3.057-18.109h15.631c0,4.168,0.738,8.843,2.19,13.025L5.055,432.763z M309.922,431.219l-14.908-4.626
		c1.218-3.866,1.836-7.772,1.836-11.94h15.631C312.482,419.864,311.62,425.832,309.922,431.219z"/>
	<path style="fill:#FFFFFF;" d="M479.985,167.477h-7.969v-15.631h7.969c1.809,0,3.581-0.296,5.266-0.88l5.114,14.77
		C487.031,166.891,483.538,167.477,479.985,167.477z M464.046,167.477h-15.938v-15.631h15.938V167.477z M440.139,167.477h-15.937
		v-15.631h15.938v15.631H440.139z M416.233,167.477h-15.937v-15.631h15.937V167.477z M392.326,167.477h-15.938v-15.631h15.938
		V167.477z M368.419,167.477h-15.937v-15.631h15.937V167.477z M344.512,167.477h-15.938v-15.631h15.938V167.477z M320.605,167.477
		h-15.938v-15.631h15.938V167.477z M499.602,160.684l-9.672-12.279c2.834-2.232,4.858-5.377,5.697-8.852l15.194,3.669
		C509.162,150.09,505.178,156.291,499.602,160.684z"/>
	<path style="fill:#FFFFFF;" d="M479.985,255.136h-7.969v-15.631h7.969c1.809,0,3.581-0.296,5.266-0.88l5.114,14.77
		C487.031,254.55,483.538,255.136,479.985,255.136z M464.046,255.136h-15.938v-15.631h15.938V255.136z M440.139,255.136h-15.937
		v-15.631h15.938v15.631H440.139z M416.233,255.136h-15.937v-15.631h15.937V255.136z M392.326,255.136h-15.938v-15.631h15.938
		V255.136z M368.419,255.136h-15.937v-15.631h15.937V255.136z M344.512,255.136h-15.938v-15.631h15.938V255.136z M320.605,255.136
		h-15.938v-15.631h15.938V255.136z M499.602,248.343l-9.672-12.279c2.834-2.233,4.858-5.377,5.697-8.852l15.194,3.669
		C509.162,237.749,505.178,243.952,499.602,248.343z"/>
	<path style="fill:#FFFFFF;" d="M479.985,342.795h-7.969v-15.631h7.969c1.809,0,3.581-0.296,5.266-0.879l5.114,14.77
		C487.031,342.21,483.538,342.795,479.985,342.795z M464.046,342.795h-15.938v-15.631h15.938V342.795z M440.139,342.795h-15.937
		v-15.631h15.938v15.631H440.139z M416.233,342.795h-15.937v-15.631h15.937V342.795z M392.326,342.795h-15.938v-15.631h15.938
		V342.795z M368.419,342.795h-15.937v-15.631h15.937V342.795z M344.512,342.795h-15.938v-15.631h15.938V342.795z M320.605,342.795
		h-15.938v-15.631h15.938V342.795z M499.602,336.002l-9.672-12.279c2.834-2.232,4.858-5.377,5.697-8.852l15.194,3.669
		C509.162,325.409,505.178,331.611,499.602,336.002z"/>
	<path style="fill:#FFFFFF;" d="M479.985,430.455h-7.969v-15.631h7.969c1.809,0,3.581-0.296,5.266-0.879l5.114,14.77
		C487.031,429.87,483.538,430.455,479.985,430.455z M464.046,430.455h-15.938v-15.631h15.938V430.455z M440.139,430.455h-15.937
		v-15.631h15.938v15.631H440.139z M416.233,430.455h-15.937v-15.631h15.937V430.455z M392.326,430.455h-15.938v-15.631h15.938
		V430.455z M368.419,430.455h-15.937v-15.631h15.937V430.455z M344.512,430.455h-15.938v-15.631h15.938V430.455z M320.605,430.455
		h-15.938v-15.631h15.938V430.455z M499.602,423.661l-9.672-12.279c2.834-2.232,4.858-5.377,5.697-8.852l15.194,3.669
		C509.162,413.069,505.178,419.27,499.602,423.661z"/>
</g>
<path style="fill:#FBB03B;" d="M328.573,87.941h151.411c13.204,0,23.907-10.703,23.907-23.907l0,0
	c0-13.204-10.704-23.907-23.907-23.907H344.512c-8.802,0-15.938-7.136-15.938-15.938l0,0L328.573,87.941L328.573,87.941z"/>
<path d="M232.944,159.349H81.533c-13.098,0-23.753-10.751-23.753-23.967s10.656-23.967,23.753-23.967h151.411
	c13.098,0,23.754,10.751,23.754,23.967S246.043,159.349,232.944,159.349z M81.534,127.045c-4.403,0-8.122,3.817-8.122,8.336
	c0,4.519,3.719,8.336,8.122,8.336h151.411c4.403,0,8.123-3.817,8.123-8.336s-3.72-8.336-8.123-8.336
	C232.945,127.045,81.534,127.045,81.534,127.045z"/>
<path d="M511.707,64.026L511.707,64.026c-0.003-17.489-14.232-31.716-31.722-31.716h-87.812V0.435h-47.661
	c-13.098,0-23.754,10.656-23.754,23.754c0,0.008,0.001,0.017,0.001,0.024h-0.001l0.172,55.346L57.627,79.11
	c-14.839,0-28.841,6.025-39.426,16.967C7.762,106.865,2.011,120.99,1.999,135.853H1.997L0,454.515
	c0,30.392,26.928,57.051,57.627,57.051h199.225c30.583,0,56.42-25.819,56.42-56.4l-0.791-319.803h-0.013
	c-0.138-14.683-5.868-28.616-16.19-39.285c-0.325-0.336-0.663-0.652-0.993-0.979l184.699,0.658c5.879,0,11.387-1.613,16.112-4.412
	l0.272,353.785c0,8.623-7.196,15.377-16.384,15.377H319.913v15.631h160.072c17.953,0,32.015-13.62,32.015-31.014L511.707,64.026z
	 M297.642,455.184c0,22.089-18.679,40.75-40.789,40.75H57.627c-22.372,0.001-41.996-19.354-41.996-41.37l1.754-279.719
	c0.273,0.294,0.536,0.595,0.816,0.884c10.586,10.942,24.587,16.967,39.426,16.967h199.225c14.839,0,28.841-6.025,39.426-16.967
	c0.23-0.238,0.445-0.486,0.67-0.726L297.642,455.184z M296.851,135.902c0,22.312-18.317,41.161-39.998,41.161H57.627
	c-21.682,0-39.998-18.85-39.998-41.161s18.317-41.161,39.998-41.161h137.135l66.25,0.236
	C280.825,97.197,296.851,115.033,296.851,135.902z M336.389,24.187c0.001-4.478,3.644-8.122,8.123-8.122h32.03v16.246h-32.03
	c-4.479,0-8.122-3.643-8.123-8.121V24.187z M480.013,80.125l-143.451-0.511l-0.103-33.08c2.516,0.91,5.227,1.408,8.053,1.408
	h135.473c8.873,0,16.091,7.218,16.091,16.09C496.076,72.906,488.857,80.125,480.013,80.125z"/>
<path d="M57.313,167.477c-16.673,0-31.722-14.23-31.722-31.722s15.049-31.722,31.722-31.722v15.631
	c-8.336,0-16.092,7.218-16.092,16.09c0,8.873,7.755,16.092,16.092,16.092V167.477z"/>
<path d="M256.347,167.477v-15.631c9.379,0,16.091-7.219,16.091-16.092c0-8.873-6.713-16.09-16.091-16.09v-15.631
	c17.715,0,31.722,14.23,31.722,31.721C288.069,153.247,274.062,167.477,256.347,167.477z"/>
</svg>