<?xml version="1.0" encoding="iso-8859-1"?>
<!-- Uploaded to: SVG Repo, www.svgrepo.com, Generator: SVG Repo Mixer Tools -->
<svg height="800px" width="800px" version="1.1" id="Layer_1" xmlns="http://www.w3.org/2000/svg" xmlns:xlink="http://www.w3.org/1999/xlink" 
	 viewBox="0 0 512.003 512.003" xml:space="preserve">
<g>
	<path style="fill:#BC5949;" d="M300.139,414.897V97.103H17.657V512h379.586C343.836,512,300.139,468.303,300.139,414.897"/>
	<g>
		<path style="fill:#9C3F33;" d="M101.647,245.914l-9.084-15.139L313.254,98.36l9.084,15.139L101.647,245.914z"/>
		<path style="fill:#9C3F33;" d="M172.199,263.612l-8.951-15.228l150.069-88.276l8.951,15.228L172.199,263.612z"/>
		<path style="fill:#9C3F33;" d="M317.794,229.517l-79.448,44.138"/>
	</g>
	<path style="fill:#EF705D;" d="M397.243,512L397.243,512c-53.407,0-97.103-43.697-97.103-97.103V97.103
		C300.139,43.697,343.836,0,397.243,0s97.103,43.697,97.103,97.103v317.793C494.346,468.303,450.65,512,397.243,512"/>
	<path style="fill:#9C3F33;" d="M494.346,414.897c0,53.628-43.476,97.103-97.103,97.103s-97.103-43.476-97.103-97.103
		s43.476-97.103,97.103-97.103S494.346,361.269,494.346,414.897"/>
	<path style="fill:#BC5949;" d="M450.208,414.897c0,29.255-23.711,52.966-52.966,52.966s-52.966-23.711-52.966-52.966
		s23.711-52.966,52.966-52.966S450.208,385.642,450.208,414.897"/>
	<g>
		<path style="fill:#9C3F33;" d="M17.657,176.253l131.919-79.148h-34.322l-97.598,58.562V176.253z"/>
		<path style="fill:#9C3F33;" d="M17.657,210.46v10.231l4.467,7.609L245.929,97.105h-34.895L17.657,210.46z"/>
		<path style="fill:#9C3F33;" d="M17.657,211.595v18.194l280.346,70.082l2.136-8.563v-9.092L17.657,211.595z"/>
		<path style="fill:#9C3F33;" d="M17.657,284.1L227.1,343.942l4.838-16.984L17.657,265.73V284.1z"/>
		<path style="fill:#9C3F33;" d="M17.657,335.083l138.567,44.094l5.35-16.834L17.657,316.554V335.083z"/>
		<path style="fill:#9C3F33;" d="M295.597,283.742L17.66,450.504v20.595l282.483-169.49v-10.302L295.597,283.742z"/>
		<path style="fill:#9C3F33;" d="M17.657,396.156l67.346,26.942l6.55-16.402l-73.896-29.555V396.156z"/>
		<path style="fill:#9C3F33;" d="M300.139,340.721L17.657,506.079v5.923h24.832l257.651-150.819V340.721z"/>
		<path style="fill:#9C3F33;" d="M300.139,402.208L108.007,511.996h35.575l156.937-89.671c-0.194-2.463-0.38-4.926-0.38-7.433
			V402.208z"/>
	</g>
</g>
</svg>